<svg width="16" height="16" viewBox="0 0 16 16" fill="none" xmlns="http://www.w3.org/2000/svg">
<path d="M8 9.33594C7.81111 9.33594 7.65289 9.27194 7.52533 9.14394C7.39733 9.01638 7.33333 8.85816 7.33333 8.66927C7.33333 8.48038 7.39733 8.32194 7.52533 8.19394C7.65289 8.06638 7.81111 8.0026 8 8.0026C8.18889 8.0026 8.34733 8.06638 8.47533 8.19394C8.60289 8.32194 8.66667 8.48038 8.66667 8.66927C8.66667 8.85816 8.60289 9.01638 8.47533 9.14394C8.34733 9.27194 8.18889 9.33594 8 9.33594ZM5.33333 9.33594C5.14444 9.33594 4.986 9.27194 4.858 9.14394C4.73044 9.01638 4.66667 8.85816 4.66667 8.66927C4.66667 8.48038 4.73044 8.32194 4.858 8.19394C4.986 8.06638 5.14444 8.0026 5.33333 8.0026C5.52222 8.0026 5.68067 8.06638 5.80867 8.19394C5.93622 8.32194 6 8.48038 6 8.66927C6 8.85816 5.93622 9.01638 5.80867 9.14394C5.68067 9.27194 5.52222 9.33594 5.33333 9.33594ZM10.6667 9.33594C10.4778 9.33594 10.3196 9.27194 10.192 9.14394C10.064 9.01638 10 8.85816 10 8.66927C10 8.48038 10.064 8.32194 10.192 8.19394C10.3196 8.06638 10.4778 8.0026 10.6667 8.0026C10.8556 8.0026 11.0138 8.06638 11.1413 8.19394C11.2693 8.32194 11.3333 8.48038 11.3333 8.66927C11.3333 8.85816 11.2693 9.01638 11.1413 9.14394C11.0138 9.27194 10.8556 9.33594 10.6667 9.33594ZM8 12.0026C7.81111 12.0026 7.65289 11.9386 7.52533 11.8106C7.39733 11.683 7.33333 11.5248 7.33333 11.3359C7.33333 11.147 7.39733 10.9888 7.52533 10.8613C7.65289 10.7333 7.81111 10.6693 8 10.6693C8.18889 10.6693 8.34733 10.7333 8.47533 10.8613C8.60289 10.9888 8.66667 11.147 8.66667 11.3359C8.66667 11.5248 8.60289 11.683 8.47533 11.8106C8.34733 11.9386 8.18889 12.0026 8 12.0026ZM5.33333 12.0026C5.14444 12.0026 4.986 11.9386 4.858 11.8106C4.73044 11.683 4.66667 11.5248 4.66667 11.3359C4.66667 11.147 4.73044 10.9888 4.858 10.8613C4.986 10.7333 5.14444 10.6693 5.33333 10.6693C5.52222 10.6693 5.68067 10.7333 5.80867 10.8613C5.93622 10.9888 6 11.147 6 11.3359C6 11.5248 5.93622 11.683 5.80867 11.8106C5.68067 11.9386 5.52222 12.0026 5.33333 12.0026ZM10.6667 12.0026C10.4778 12.0026 10.3196 11.9386 10.192 11.8106C10.064 11.683 10 11.5248 10 11.3359C10 11.147 10.064 10.9888 10.192 10.8613C10.3196 10.7333 10.4778 10.6693 10.6667 10.6693C10.8556 10.6693 11.0138 10.7333 11.1413 10.8613C11.2693 10.9888 11.3333 11.147 11.3333 11.3359C11.3333 11.5248 11.2693 11.683 11.1413 11.8106C11.0138 11.9386 10.8556 12.0026 10.6667 12.0026ZM3.33333 14.6693C2.96667 14.6693 2.65267 14.5388 2.39133 14.2779C2.13044 14.0166 2 13.7026 2 13.3359V4.0026C2 3.63594 2.13044 3.32216 2.39133 3.06127C2.65267 2.79994 2.96667 2.66927 3.33333 2.66927H4V2.0026C4 1.81372 4.06378 1.65527 4.19133 1.52727C4.31933 1.39972 4.47778 1.33594 4.66667 1.33594C4.85556 1.33594 5.014 1.39972 5.142 1.52727C5.26956 1.65527 5.33333 1.81372 5.33333 2.0026V2.66927H10.6667V2.0026C10.6667 1.81372 10.7307 1.65527 10.8587 1.52727C10.9862 1.39972 11.1444 1.33594 11.3333 1.33594C11.5222 1.33594 11.6804 1.39972 11.808 1.52727C11.936 1.65527 12 1.81372 12 2.0026V2.66927H12.6667C13.0333 2.66927 13.3473 2.79994 13.6087 3.06127C13.8696 3.32216 14 3.63594 14 4.0026V13.3359C14 13.7026 13.8696 14.0166 13.6087 14.2779C13.3473 14.5388 13.0333 14.6693 12.6667 14.6693H3.33333ZM3.33333 13.3359H12.6667V6.66927H3.33333V13.3359ZM3.33333 5.33594H12.6667V4.0026H3.33333V5.33594ZM3.33333 5.33594V4.0026V5.33594Z" fill="white" fill-opacity="0.8"/>
</svg>
