<svg width="20" height="20" viewBox="0 0 20 20" fill="none" xmlns="http://www.w3.org/2000/svg">
<path d="M17.1921 8.9138C17.1245 8.73278 16.9514 8.61241 16.7579 8.61241H11.1676L14.3921 2.34297C14.4935 2.14575 14.4412 1.90454 14.2667 1.76751C14.1824 1.70084 14.081 1.66797 13.9801 1.66797C13.8722 1.66797 13.7644 1.70593 13.6778 1.78047L10.2764 4.71797L3.4926 10.5768C3.34631 10.7032 3.29353 10.9073 3.36112 11.0883C3.42871 11.2694 3.6014 11.3902 3.79492 11.3902H9.3852L6.16066 17.6596C6.05927 17.8569 6.11159 18.0981 6.28612 18.2351C6.37038 18.3018 6.47177 18.3346 6.5727 18.3346C6.68057 18.3346 6.78844 18.2967 6.87501 18.2221L10.2764 15.2846L17.0602 9.42584C17.207 9.29945 17.2593 9.09528 17.1921 8.9138Z" fill="#FFAC33"/>
</svg>
