<svg width="20" height="20" viewBox="0 0 20 20" fill="none" xmlns="http://www.w3.org/2000/svg">
<path d="M16 10H4M16 10C16.2652 10 16.5196 9.89464 16.7071 9.70711C16.8946 9.51957 17 9.26522 17 9V8C17 7.73478 16.8946 7.48043 16.7071 7.29289C16.5196 7.10536 16.2652 7 16 7H4C3.73478 7 3.48043 7.10536 3.29289 7.29289C3.10536 7.48043 3 7.73478 3 8V9C3 9.26522 3.10536 9.51957 3.29289 9.70711C3.48043 9.89464 3.73478 10 4 10M16 10V15C16 15.5304 15.7893 16.0391 15.4142 16.4142C15.0391 16.7893 14.5304 17 14 17H6C5.46957 17 4.96086 16.7893 4.58579 16.4142C4.21071 16.0391 4 15.5304 4 15V10M10 7V6M10 7H6.714C6.48891 7 6.26603 6.95567 6.05808 6.86953C5.85013 6.78339 5.66118 6.65714 5.50202 6.49798C5.18058 6.17654 5 5.74058 5 5.286V5C5 4.46957 5.21071 3.96086 5.58579 3.58579C5.96086 3.21071 6.46957 3 7 3C7.79565 3 8.55871 3.31607 9.12132 3.87868C9.68393 4.44129 10 5.20435 10 6M10 7H13.286C14.233 7 15 6.232 15 5.286V5C15 4.46957 14.7893 3.96086 14.4142 3.58579C14.0391 3.21071 13.5304 3 13 3C12.2044 3 11.4413 3.31607 10.8787 3.87868C10.3161 4.44129 10 5.20435 10 6M10 7V17" stroke="#1C71AD" stroke-width="1.16667"/>
</svg>
